<svg xmlns="http://www.w3.org/2000/svg" x="0px" y="0px" width="23px" height="21.7px" viewBox="0 0 23 21.7" style="enable-background:white;" xml:space="preserve">
<path fill="white" d="M17.6,18.7c0.1,0.1,0.2,0.3,0.1,0.4l-1.1,1.7c0,0-0.4,0.8-1.6,0.8c-1.5,0-4.6-0.2-9.5-5.1
	C-0.1,11.2,0.1,8.2,0,7.3c0-0.9,0.2-1.8,0.9-2.2L2.5,4c0.1,0,0.1-0.1,0.2-0.1c0.1,0,0.2,0,0.2,0.1l2.4,3.5l0,0l0.6,0.8
	C6,8.6,5.9,8.8,5.8,8.9l-1.6,1c0,0-0.8,0.6-0.3,1.5c0.5,0.9,2.6,4.2,6.6,6.6c0,0,0.3,0.2,0.6,0.2s0.6-0.1,0.9-0.5l1.2-1.6
	c0.1-0.1,0.1-0.1,0.2-0.1c0.1,0,0.1,0,0.2,0.1L17.6,18.7z M23,0.3v12.6c0,0.2-0.1,0.3-0.3,0.3H6.1c-0.3-0.4-0.6-0.7-0.8-1v-2
	l0.9-0.6c0.2-0.2,0.4-0.4,0.5-0.7c0.1-0.3,0-0.6-0.2-0.8L5.3,6.2V0.3C5.3,0.2,5.4,0,5.6,0h17.1C22.8,0,23,0.2,23,0.3z M11.3,7.1
	c-0.2-0.2-0.4-0.1-0.6,0l-4.2,4.4c-0.2,0.2-0.1,0.4,0,0.6c0.1,0.1,0.2,0.1,0.3,0.1c0.1,0,0.2,0,0.3-0.1l4.2-4.4
	C11.4,7.5,11.4,7.2,11.3,7.1z M14.4,7.4l7.4-5.6c0.2-0.1,0.2-0.4,0.1-0.6c-0.1-0.2-0.4-0.2-0.6-0.1l-7.1,5.4L7,1.2
	C6.8,1,6.6,1.1,6.4,1.3C6.3,1.4,6.3,1.7,6.5,1.8l7.4,5.6c0.1,0.1,0.2,0.1,0.2,0.1C14.2,7.5,14.3,7.4,14.4,7.4z M21.8,11.4l-4.2-4.4
	c-0.2-0.2-0.4-0.2-0.6,0c-0.2,0.2-0.2,0.4,0,0.6l4.2,4.4c0.1,0.1,0.2,0.1,0.3,0.1c0.1,0,0.2,0,0.3-0.1C22,11.8,22,11.6,21.8,11.4z"></path>
</svg>
