<svg xmlns="http://www.w3.org/2000/svg" viewBox="0 0 230 90" xml:space="preserve">
<style type="text/css">
	.logo-blue-1{fill:#BB9B6A;}
	.logo-blue-2{fill:#003863;}
	.logo-blue-3{fill:#003863;stroke:#003863;stroke-width:0.2;stroke-miterlimit:10;}
</style>
    <g>
	<path class="logo-blue-2" d="M46,33.2c0.8,0.3,1.4,1.1,1.4,2c0,1.2-1,2.2-2.2,2.2c-1.2,0-2.2-1-2.2-2.2c0-0.9,0.6-1.7,1.4-2
		c0.1,0,0.1-0.1,0.1-0.2c0-0.1-0.1-0.1-0.2-0.1c-2.1,0.4-3.6,2.2-3.6,4.4c0,2.4,2,4.4,4.4,4.4c2.4,0,4.4-2,4.4-4.4
		c0-2.1-1.5-4-3.6-4.4c-0.1,0-0.1,0-0.2,0.1C45.9,33.1,45.9,33.2,46,33.2z M45.3,38.4c1.6,0,2.9-1.2,3-2.7c0.2,0.5,0.4,1,0.4,1.6
		c0,1.9-1.5,3.4-3.4,3.4c-1.9,0-3.4-1.5-3.4-3.4c0-0.5,0.1-1.1,0.4-1.6C42.4,37.2,43.7,38.4,45.3,38.4z"></path>
        <path class="logo-blue-2" d="M29.6,59c0-2.1-1.5-4-3.6-4.4c-0.1,0-0.2,0-0.2,0.1c0,0.1,0,0.1,0.1,0.2c0.8,0.3,1.4,1.1,1.4,2
		c0,1.2-1,2.2-2.2,2.2c-1.2,0-2.2-1-2.2-2.2c0-0.9,0.6-1.7,1.4-2c0.1,0,0.1-0.1,0.1-0.2c0-0.1-0.1-0.1-0.2-0.1
		c-2.1,0.4-3.6,2.2-3.6,4.4c0,2.4,2,4.4,4.4,4.4C27.6,63.5,29.6,61.5,29.6,59z M28.6,58.9c0,1.9-1.5,3.4-3.4,3.4
		c-1.9,0-3.4-1.5-3.4-3.4c0-0.5,0.1-1.1,0.4-1.6c0.2,1.5,1.5,2.7,3,2.7c1.6,0,2.9-1.2,3-2.7C28.5,57.9,28.6,58.4,28.6,58.9z"></path>
        <path class="logo-blue-2" d="M14,41.2c0.4,0,0.8-0.3,1.1-0.7c0.2,0.3,0.1,0.9,0,1.4c-0.1,0.7-0.2,1.4,0.3,1.9c0.6,0.6,1.2,0,1.6-0.4
		c0.1-0.1,0.3-0.3,0.3-0.3c0,0,0,0,0,0.2c0,0.5-0.3,0.6-0.6,0.9c-0.4,0.3-0.8,0.6-0.8,1.4c0,0.7,0.4,0.9,0.8,1
		c0.3,0.1,0.6,0.3,0.6,0.7c0,0.2-0.1,0.4-0.2,0.5C17,48,16.5,48,16.2,47.9c-0.1,0-0.2,0-0.3,0c-0.1,0-1.7,0-1.7,1.7
		c0,1.1,1,1.4,1.5,1.5c-0.5,0.6-2.4,3.1-2.4,7.3c0,10.5,6.7,12.8,9,12.8c1.1,0,2.2-0.3,3-0.9c0.1,0.7,0.5,1.8,1.9,1.8
		c1.5,0,1.9-1.1,1.9-1.5c0.4,0.1,1.8,0.5,3.4,2.1c1.6,1.6,2.5,4,2.7,4.6l0.1,0.4l0.1-0.4c0.2-0.7,1.1-3,2.7-4.6c1.6-1.6,3-2,3.4-2.1
		c0.1,0.4,0.4,1.5,1.9,1.5c1.4,0,1.8-1.2,1.9-1.8c0.8,0.5,1.9,0.9,3,0.9c2.3,0,9-2.4,9-12.8c0-4.2-1.9-6.7-2.4-7.3
		c0.5-0.1,1.5-0.4,1.5-1.5c0-1.7-1.7-1.7-1.7-1.7c-0.1,0-0.2,0-0.3,0c-0.3,0-0.8,0.1-1.1-0.1C53,47.7,53,47.6,53,47.4
		c0-0.4,0.3-0.5,0.6-0.7c0.4-0.2,0.8-0.3,0.8-1c0-0.9-0.4-1.2-0.8-1.4C53.2,44,53,43.8,53,43.3c0-0.1,0-0.2,0-0.2
		c0.1,0,0.2,0.2,0.4,0.3c0.4,0.4,1,1,1.6,0.4c0.5-0.5,0.4-1.2,0.3-1.9c-0.1-0.5-0.2-1,0-1.4c0.3,0.4,0.7,0.6,1.1,0.7
		c0.5,0,0.9-0.1,1.3-0.4c0.4-0.3,0.6-0.8,0.6-1.3c0-0.5-0.1-1-0.4-1.4c-0.3-0.4-0.7-0.6-1.2-0.6c0,0-0.1,0-0.1,0l-0.1,0c0,0,0,0,0,0
		h0c-0.3,0-0.6,0-0.9,0.1l-2.5-6.1c0.6-0.5,1-1.3,1-2.2c0-2-1.8-2.1-2-2.1c-1.2,0-1.7,0.6-2,1c-0.1,0.1-0.1,0.2-0.2,0.2
		c-0.1,0-0.5,0.2-1.5,0.2c-1.3,0-2.4-0.1-3.3-0.3c-0.8-0.1-1.5-0.2-2.3-0.2c-1.4,0-3.9,0.4-5.3,0.6c-0.2-0.8-0.9-1.4-1.8-1.4h-0.9
		c-0.9,0-1.6,0.6-1.8,1.4c-1.4-0.2-3.9-0.6-5.3-0.6c-0.8,0-1.5,0.1-2.3,0.2c-0.9,0.1-1.9,0.3-3.3,0.3c-1,0-1.4-0.1-1.5-0.2
		c-0.1-0.1-0.1-0.1-0.2-0.2c-0.3-0.4-0.8-1-2-1c-0.2,0-2,0.1-2,2.1c0,0.9,0.3,1.6,1,2.2l-2.5,6.1c-0.3-0.1-0.6-0.1-0.9-0.1l0,0
		l-0.1,0v0c0,0,0,0-0.1,0c-0.4,0-0.9,0.2-1.2,0.6c-0.3,0.4-0.5,0.9-0.4,1.4c0,0.5,0.3,0.9,0.6,1.3C13.1,41.1,13.5,41.2,14,41.2z
		 M52.2,32l2.4,5.9c-2.5,1.1-4.2,4.4-4.2,6.7c0,0,0,0,0,0.1H39V29.8c3.1,0.2,5,0.9,6.8,1.4c1.6,0.5,2.9,1,4.7,1
		C51.1,32.3,51.7,32.2,52.2,32z M50.9,29.4L50.9,29.4c0-0.5,0.4-1.1,1.1-1.1c0.7,0,1,0.4,1,1.2c0,1-0.9,1.6-2.2,1.6
		c-2.1,0-3.8-0.5-5.3-1c-1.3-0.4-2.5-0.8-3.8-0.9c0.7-0.2,2.3,0,3.8,0.3C47.8,29.8,50.1,30.2,50.9,29.4L50.9,29.4z M50.5,45.7
		c0.1,1.2,0.3,2.2,0.7,3c-0.5,0-0.9,0.2-1.2,0.5c-0.4,0.6-0.3,1.4-0.2,1.9H37.9v18.4c-1.6,1.4-2.5,3.2-2.8,3.9
		c-0.3-0.8-1.2-2.5-2.8-3.9V51.1H20.6c0.1-0.5,0.2-1.4-0.2-1.9c-0.2-0.3-0.6-0.5-1.2-0.5c0.4-0.8,0.6-1.8,0.7-3h12.5V29.8
		c0.2,0,0.4,0,0.6,0c0.3,0.7,1,1.1,1.7,1.1h0.9c0.8,0,1.4-0.4,1.7-1.1c0.2,0,0.4,0,0.6,0v15.9H50.5z M55.6,39.1c0,0-1.5,0.2-1.5,1.8
		c0,0.7,0.1,1.1,0.1,1.4c0.1,0.4,0.1,0.6-0.1,0.7c0,0-0.1,0-0.1,0c-0.2,0-0.4-0.3-0.6-0.6c-0.1-0.1-0.2-0.2-0.2-0.3
		c-0.1-0.1-0.2-0.1-0.4,0c-0.3,0.1-0.7,0.6-0.7,1.3c0,0.6,0.4,1,0.7,1.3c0.3,0.3,0.5,0.5,0.5,0.7c0,0.2-0.1,0.3-0.4,0.4
		c-0.3,0.2-0.7,0.4-0.7,1.1c0,1.2,0.5,1.8,1.6,1.8c0.9,0,1.2,0,1.2,0.5c0,0.2-0.1,0.5-0.9,0.5c-1.6,0-2.8-2.3-2.8-5.5
		c0-3.5,3.2-6.1,4.8-6.1c1.2,0,1.2,0.8,1.2,0.9c0,0.1,0,0.8-0.8,0.8c-0.3,0-0.5-0.1-0.6-0.2c-0.3-0.3-0.2-0.7-0.2-0.7l0-0.1
		L55.6,39.1z M43.8,68c-0.4-0.2-0.9-0.2-1.5-0.2c-1.2,0-2.3,0.3-3.3,1V52.1h13l0.5,0c1.4,1.4,1.5,3.3,1.5,4.1l-1-1.8l-0.4,7.4l-1-2
		l0,0.5c0,0.1,0.2,5.1-1.8,7.2c-0.5,0.5-1.1,0.8-1.8,0.8c0.1-0.2,0.2-0.6,0.2-1.3c0-1.1-1.3-1.6-2.1-1.6c-1.5,0-2.3,0.9-2.3,2.4
		C43.8,67.9,43.8,67.9,43.8,68z M42.3,69.7L42.3,69.7L42.3,69.7c-0.2-0.1-2-0.6-4.1,1.4c-1.1,1.1-1.9,2.1-2.3,2.9
		c0.8-1.8,2.7-5.2,6.6-5.2c1.5,0,1.5,1.2,1.5,1.2c0,0.5-0.1,1.1-0.8,1.1C42.6,71.1,42.3,70.4,42.3,69.7z M45.4,66.7
		c0.3-0.3,0.6-0.3,0.8-0.3c0.6,0,1.2,0.4,1.2,0.9c0,1-0.7,1-0.7,1l-0.1,0l0,0.1c0,0,0.1,0.9,1.8,0.9c3.3,0,4-4.6,4.1-6l0.9,1.8
		l0.4-7.9l1.1,2.2l0.1-0.3c0,0,0.1-0.5,0.1-3.1c0-2.8-2.1-5.2-2.1-5.2l-0.1-0.2l0,0.2c0,0-0.1,0.5-0.9,0.5c-0.8,0-1.2-0.5-1.2-0.8
		c0-0.3,0.1-0.5,0.2-0.6c0.1-0.1,0.3-0.2,0.5-0.2c1.5,0,4.9,2.9,4.9,8.5c0,3.9-1,7.1-2.8,9.1c-1.4,1.6-3.3,2.5-5.3,2.5
		c-1.8,0-3.1-0.8-3.1-1.9C45,67.4,45.1,67,45.4,66.7z M27.8,68.8c3.9,0,5.8,3.4,6.6,5.2c-0.5-0.7-1.2-1.8-2.3-2.9
		c-1.3-1.3-2.6-1.6-3.3-1.6c-0.4,0-0.6,0.1-0.6,0.1l-0.1,0v0.1c0,0.7-0.3,1.4-1,1.4c-0.6,0-0.8-0.6-0.8-1.1
		C26.3,70,26.3,68.8,27.8,68.8z M24.2,65.4c-1,0-2.1,0.6-2.1,1.6c0,0.7,0.1,1.1,0.2,1.3c-0.7,0-1.3-0.3-1.8-0.8
		c-2-2-1.8-7.1-1.8-7.2l0-0.5l-1,2l-0.4-7.4l-1,1.8c0-0.8,0.2-2.7,1.5-4.1l13.5,0v16.6c-1-0.6-2.2-1-3.3-1c-0.6,0-1.1,0.1-1.5,0.2
		c0,0,0-0.1,0-0.1C26.5,66.3,25.7,65.4,24.2,65.4z M19.1,49.7c0.2,0,0.4,0.1,0.5,0.2c0.1,0.1,0.2,0.3,0.2,0.6c0,0.3-0.4,0.8-1.2,0.8
		c-0.8,0-0.9-0.5-0.9-0.5l0-0.2l-0.1,0.2c0,0-2.1,2.5-2.1,5.2c0,2.6,0.1,3.1,0.1,3.1l0.1,0.3l1.1-2.2l0.4,7.9l0.9-1.8
		c0.1,1.4,0.9,6,4.1,6c1.7,0,1.8-0.8,1.8-0.9l0-0.1l-0.1,0c0,0-0.7-0.1-0.7-1c0-0.4,0.6-0.9,1.2-0.9c0.2,0,0.6,0.1,0.8,0.3
		c0.3,0.3,0.4,0.7,0.4,1.2c0,1.1-1.3,1.9-3.1,1.9c-3,0-8.1-2.4-8.1-11.6C14.2,52.6,17.6,49.7,19.1,49.7z M16.2,50
		c-0.8,0-0.9-0.3-0.9-0.5c0-0.5,0.3-0.5,1.2-0.5c1,0,1.6-0.6,1.6-1.8c0-0.7-0.4-1-0.7-1.1c-0.3-0.1-0.4-0.2-0.4-0.4
		c0-0.3,0.2-0.5,0.5-0.7c0.3-0.3,0.7-0.7,0.7-1.3c0-0.7-0.4-1.2-0.7-1.3c-0.1,0-0.1,0-0.2,0c-0.1,0-0.2,0-0.2,0.1
		c-0.1,0.1-0.2,0.2-0.2,0.3c-0.2,0.2-0.4,0.6-0.6,0.6c0,0-0.1,0-0.1,0c-0.1-0.1-0.1-0.3-0.1-0.7c0.1-0.3,0.1-0.8,0.1-1.4
		c0-1.5-1.4-1.8-1.5-1.8l-0.1,0l0,0.1c0,0,0,0.4-0.2,0.7c-0.1,0.1-0.3,0.2-0.6,0.2c-0.8,0-0.8-0.7-0.8-0.8c0-0.1,0-0.9,1.2-0.9
		c1.6,0,4.8,2.6,4.8,6.1C18.9,47.8,17.8,50,16.2,50z M19.5,29.4c0.8,0.8,3.1,0.4,5.4,0c1.5-0.2,3.1-0.5,3.8-0.3
		c-1.3,0.1-2.5,0.4-3.8,0.9c-1.6,0.5-3.2,1-5.3,1c-1.3,0-2.2-0.7-2.2-1.6c0-0.8,0.3-1.2,1-1.2C19,28.2,19.4,28.9,19.5,29.4
		L19.5,29.4L19.5,29.4z M31.4,44.6H19.9l0-0.1c0-2.3-1.7-5.6-4.2-6.7l2.4-5.9c0.5,0.2,1.1,0.3,1.8,0.3c1.8,0,3.2-0.5,4.7-1
		c1.7-0.6,3.7-1.2,6.8-1.4V44.6z M34.7,28.4h0.9c0.4,0,0.8,0.3,0.8,0.7c0,0.4-0.4,0.7-0.8,0.7h-0.9c-0.4,0-0.8-0.3-0.8-0.7
		C33.9,28.7,34.3,28.4,34.7,28.4z"></path>
        <path class="logo-blue-2" d="M69.5,66.2c-0.1-0.1-0.2-0.2-0.4-0.2c-1.2-0.1-2.4-0.5-3.4-1.1l0,0c-0.7-0.7-0.7-0.8-0.7-2.3
		c0-0.7,0.6-1.6,1.3-2.6c0.8-1,1.5-2.1,1.5-3.2c0-0.9-0.3-1.7-0.6-2.4c-0.3-0.6-0.5-1.2-0.5-1.9c0-1.4,1.4-3.1,1.5-3.2l0.1-0.2h-0.2
		c-1.3,0-2.3,0.3-2.9,1c-1,1-1,2.6-1,3.5c0,0.1,0,0.2,0,0.3c0,0.7-0.1,1.4-0.2,1.8c-0.1-0.2-0.2-0.4-0.4-0.5
		c-0.3-0.3-0.5-0.7-0.5-1.4c0-0.4,0.1-0.8,0.2-1.3c0.2-1.3,0.5-2.9-0.5-3.9c-0.6-0.6-0.3-2.1-0.3-2.1l0.1-0.3l-0.2,0.2
		c-1.3,1.3-1.3,2.2-1.3,3.6v0.2c0,0.8-0.3,1.3-0.6,1.7c-0.3,0.5-0.6,0.9-0.6,1.6c0,0.7,0.1,1,0.2,1.3c0.1,0.3,0.2,0.7,0.2,1.6
		c0,0.6-0.3,1.2-0.8,1.9C58.9,59.5,58,61,58,63.5c0,1.2,0.4,2.2,1.1,2.6l0,0c0.1,0,0.1,0.1,0.2,0.1l1.8,1.1c-1.2,1.1-2.9,2.2-5,3
		c-7.2,3-12.6,6.6-14.5,8.1c-2.1,1.7-4,2.3-6.4,2.3c-2.4,0-4.3-0.7-6.4-2.3c-1.9-1.5-7.4-5.1-14.5-8.1c-2.1-0.9-3.7-1.9-5-3l1.8-1.1
		c0.1,0,0.1-0.1,0.2-0.1L11.2,66v0l0.1,0.1c0.7-0.5,1.1-1.4,1.1-2.6c0-2.5-0.9-4-1.6-5.2C10.3,57.5,10,57,10,56.4
		c0-0.9,0.1-1.2,0.2-1.6c0.1-0.3,0.2-0.6,0.2-1.3c0-0.7-0.3-1.2-0.6-1.6c-0.3-0.5-0.6-1-0.6-1.7V50c0-1.4,0-2.3-1.3-3.6l-0.2-0.2
		l0.1,0.3c0,0,0.3,1.6-0.3,2.1c-1,1-0.7,2.6-0.5,3.9c0.1,0.5,0.2,1,0.2,1.3c0,0.7-0.3,1.1-0.5,1.4c-0.1,0.2-0.3,0.3-0.3,0.5
		c-0.1-0.4-0.2-1-0.2-1.8c0-0.1,0-0.2,0-0.3c0-0.9,0-2.5-1-3.5c-0.6-0.7-1.6-1-2.9-1H1.9l0.1,0.2c0,0,1.5,1.8,1.5,3.2
		c0,0.7-0.3,1.3-0.5,1.9c-0.3,0.7-0.6,1.5-0.6,2.4c0,1,0.8,2.1,1.5,3.2c0.7,0.9,1.3,1.8,1.3,2.6c0,1.4,0,1.6-0.7,2.3l0,0
		c-1,0.7-2.2,1-3.4,1.2c-0.1,0-0.3,0.1-0.3,0.2c-0.1,0.1-0.1,0.2-0.1,0.4c0.1,1.1,0.5,2.4,0.9,3.5c1.8,4.2,5.8,6,9.7,7.8l0.7,0.3
		c3.7,1.7,6.9,3.5,9.7,5.5l5.2,3.5c0.1,0.1,3.6,2.4,8.2,2.4l0.1,0l0.1,0c4.5-0.1,7.8-2.2,8.2-2.4l5.3-3.5c2.8-2,5.9-3.8,9.6-5.5
		l0.7-0.3c3.9-1.7,7.9-3.5,9.7-7.8c0.5-1.1,0.8-2.3,0.9-3.5C69.7,66.4,69.6,66.3,69.5,66.2L69.5,66.2z M8.3,49
		c0,2.1,0.5,2.9,0.8,3.5c0.2,0.4,0.4,0.6,0.4,1.1c0,0.6-0.2,0.9-0.3,1.3c-0.2,0.4-0.3,0.8-0.3,1.4c0,0.5,0.3,1.1,0.8,1.9
		c0.7,1.3,1.7,3,1.7,5.1c0,1-0.2,1.7-0.6,1.8c-0.6,0.3-1.6-0.5-2-0.9c-0.3-0.4-1-1-1.7-1c-0.2,0-0.3,0-0.5,0.1c0-0.2,0-0.6,0-1
		c0-1.3-0.7-2.1-1.5-3c-0.7-0.8-1.5-1.7-1.5-3c0-0.9,0.2-1.4,0.4-1.9c0.2-0.5,0.4-1.1,0.4-2.1c0-1.2-0.4-2-0.7-2.4
		C4.2,50.5,5,51.4,5,53.6c0,3.7,1.2,4.1,1.7,4.1h0.1v-0.1c0-0.9,0.3-1.4,0.7-1.9c0.4-0.6,0.8-1.1,0.8-2.1c0-0.3-0.1-0.6-0.2-1
		c-0.1-0.5-0.3-1.1-0.3-2C7.7,50,8,49.2,8.3,49z M6.4,64.8c0.4,1.5,2,4.2,7.5,6.5c7.1,3,12.5,6.5,14.3,8c2.3,1.8,4.3,2.5,6.9,2.6v0
		l0.3,0c2.6,0,4.6-0.8,6.9-2.6c1.9-1.4,7.3-5,14.3-8c5.5-2.3,7-5,7.5-6.5c0.9,0.8,2.4,1.8,4.6,2.2c-0.1,0.9-0.4,1.8-0.8,2.7
		c-1.7,3.9-5.5,5.6-9.2,7.2L58,77.1c-3.8,1.7-7,3.5-9.8,5.6l-5.2,3.5c0,0-3.3,2.2-7.7,2.2c-4.4,0-7.7-2.2-7.7-2.2l-5.2-3.5
		c-2.9-2.1-6.1-3.9-9.8-5.6l-0.7-0.3c-3.7-1.6-7.5-3.3-9.1-7.2c-0.4-0.8-0.6-1.8-0.8-2.7C4,66.6,5.4,65.6,6.4,64.8z M60.7,58.3
		c0.4-0.8,0.8-1.4,0.8-1.9c0-0.6-0.2-1-0.3-1.4c-0.2-0.4-0.3-0.8-0.3-1.3c0-0.5,0.2-0.8,0.4-1.1c0.3-0.6,0.8-1.4,0.8-3.5
		c0.3,0.2,0.5,1,0.5,1.6c0,0.9-0.2,1.5-0.3,2c-0.1,0.4-0.2,0.7-0.2,1c0,1,0.4,1.6,0.8,2.1c0.4,0.5,0.7,1.1,0.7,1.9v0.1h0.1
		c0.5,0,1.7-0.4,1.7-4.1c0-2.3,0.7-3.2,1.3-3.5c-0.3,0.4-0.7,1.1-0.7,2.4c0,1.1,0.2,1.6,0.4,2.1c0.2,0.5,0.4,1,0.4,1.9
		c0,1.3-0.7,2.2-1.5,3c-0.7,0.8-1.5,1.7-1.5,3c0,0.4,0,0.7,0,1c-0.9-0.4-1.8,0.4-2.2,0.9c-0.4,0.4-1.4,1.2-2,0.9
		C59.2,65,59,64.4,59,63.4C59,61.3,60,59.6,60.7,58.3z"></path>
        <polygon class="logo-blue-2" points="10.5,74.2 8.9,73.4 10.4,70.6 9.7,70.2 7.9,73.7 10.2,74.9 	"></polygon>
        <path class="logo-blue-2" d="M11.2,75.3l0.5-0.5l1.4,0.6l0,0.7l0.7,0.3l0.1-4.2l-0.3-0.1L10.5,75L11.2,75.3z M12.3,74.3l0.8-0.7l0,1.1
		L12.3,74.3z"></path>
        <path class="logo-blue-2" d="M16.2,77.5c0.1,0,0.2,0,0.4-0.1c0.3-0.1,0.5-0.3,0.6-0.5c0.2-0.4,0.1-0.8-0.1-1.1c0.3,0,0.6-0.2,0.7-0.5
		c0.3-0.5,0-1.1-0.7-1.5l-1.2-0.6l-1.7,3.4l1.3,0.7C15.8,77.4,16,77.5,16.2,77.5z M16.8,74.4c0.4,0.2,0.3,0.4,0.3,0.6
		c-0.1,0.2-0.2,0.3-0.6,0.1l-0.5-0.2l0.4-0.7L16.8,74.4z M15.2,76.3l0.4-0.8l0.6,0.3c0.3,0.2,0.4,0.4,0.3,0.6
		c-0.1,0.1-0.1,0.2-0.2,0.2c-0.1,0-0.3,0-0.5-0.1L15.2,76.3z"></path>
        <path class="logo-blue-2" d="M17.8,77.9c0.1,0.5,0.5,0.9,1,1.2c0.3,0.2,0.7,0.3,1,0.3c0.7,0,1.3-0.4,1.7-1c0.3-0.5,0.4-1,0.2-1.5
		c-0.1-0.5-0.5-0.9-0.9-1.2h0c-1-0.6-2.2-0.3-2.8,0.7C17.7,76.9,17.6,77.4,17.8,77.9z M18.7,76.8c0.3-0.4,0.6-0.7,1.1-0.7
		c0.2,0,0.4,0.1,0.6,0.2c0.3,0.2,0.5,0.4,0.6,0.7c0.1,0.3,0,0.7-0.2,1c-0.4,0.7-1.1,0.9-1.7,0.5C18.5,78.1,18.3,77.4,18.7,76.8z"></path>
        <path class="logo-blue-2" d="M21.5,80.8l0.9-1.3l0.1,0.1l-0.1,1.8l0,0.1l0.7,0.5l0.1-2c0.5,0.1,0.9-0.1,1.1-0.5c0.2-0.3,0.2-0.5,0.2-0.8
		c-0.1-0.3-0.3-0.6-0.6-0.9l-1-0.7l-2.2,3.2L21.5,80.8z M23.6,78.4c0.2,0.1,0.3,0.2,0.3,0.4c0,0.1,0,0.2-0.1,0.3
		c-0.1,0.1-0.2,0.3-0.7,0l-0.3-0.2l0.5-0.7L23.6,78.4z"></path>
        <path class="logo-blue-2" d="M27.2,84.8c0.4,0.2,0.8,0.4,1.2,0.4c0.6,0,1.2-0.3,1.6-0.9c0.3-0.5,0.4-1,0.3-1.5c-0.1-0.5-0.4-1-0.9-1.3
		s-1-0.4-1.5-0.3c-0.5,0.1-1,0.4-1.3,0.9C26,82.9,26.3,84.1,27.2,84.8z M27.3,82.4c0.4-0.6,1.1-0.8,1.7-0.4c0.3,0.2,0.5,0.5,0.5,0.8
		c0.1,0.3,0,0.7-0.2,1c-0.4,0.6-1.1,0.8-1.7,0.4C27,83.8,26.9,83.1,27.3,82.4z"></path>
        <polygon class="logo-blue-2" points="30.6,86.3 31.6,84.6 31.9,86.7 32.2,86.7 33.5,85 33.6,87.1 34.3,87.3 34.3,83.4 34.3,83.3 33.9,83.2
		32.4,85.2 32.1,82.7 31.7,82.7 29.8,86.2 	"></polygon>
        <polygon class="logo-blue-2" points="36.6,87.1 36.2,84.9 38.5,86.7 38.9,86.6 38.1,82.8 37.3,83 37.7,85.1 35.4,83.4 35.1,83.4 35.8,87.2
			"></polygon>

        <rect x="39.5" y="82.3" transform="matrix(0.9159 -0.4014 0.4014 0.9159 -30.4484 23.0969)" class="logo-blue-2" width="0.8" height="3.9"></rect>
        <path class="logo-blue-2" d="M42.5,85.1l-0.1-0.7l1.2-0.8l0.6,0.4l0.7-0.4l-3.5-2.3l-0.3,0.2l0.7,4.1L42.5,85.1z M42.9,83.1l-0.7,0.5
		L42,82.5L42.9,83.1z"></path>
        <polygon class="logo-blue-2" points="48.3,81.2 48.6,80.9 47.8,76.8 47.1,77.3 47.7,79.9 45.4,78.5 44.7,78.9 48.3,81.1 	"></polygon>
        <polygon class="logo-blue-2" points="51,79.4 49,76.1 48.3,76.6 50.3,79.8 	"></polygon>
        <polygon class="logo-blue-2" points="52.5,78.6 51.4,76.6 54.2,77.6 54.5,77.4 52.7,74.1 52,74.5 53,76.4 50.3,75.4 49.9,75.6 51.8,78.9
		"></polygon>
        <path class="logo-blue-2" d="M55.3,76.5c0.2,0.1,0.4,0.1,0.6,0.1c0.3,0,0.6-0.1,0.9-0.2c0.4-0.2,0.6-0.4,0.9-0.7l0,0l-0.3-0.8L57.3,75l0,0
		c-0.2,0.4-0.4,0.6-0.7,0.8c-0.6,0.3-1.3,0-1.6-0.6c-0.3-0.7-0.1-1.4,0.6-1.7c0.3-0.1,0.6-0.2,1,0l0,0l0.2-0.1l-0.4-0.7l-0.1,0
		c-0.4,0-0.7,0-1.1,0.2c-0.5,0.2-0.9,0.6-1,1.1c-0.2,0.5-0.2,1,0.1,1.6S54.8,76.3,55.3,76.5z"></path>

        <rect x="57.8" y="71.7" transform="matrix(0.9087 -0.4174 0.4174 0.9087 -25.4102 31.0087)" class="logo-blue-2" width="0.8" height="3.9"></rect>
        <polygon class="logo-blue-2" points="59.5,71.7 60.9,74.5 61.6,74.1 60.2,71.3 61,70.9 60.6,70.3 58.4,71.4 58.3,71.5 58.6,72.1 	"></polygon>
        <path class="logo-blue-2" d="M35.6,2.7c0,0,0.1,0,0.3-0.1l0.1,0c0,0,0,0,0.1,0c0.1,0,0.2,0,0.3,0c0.2-0.1,0.2-0.4,0.2-0.4
		c0-0.2-0.1-0.3-0.1-0.3c0,0-0.2-0.1-0.8,0.3c-0.2,0.1-0.3,0.2-0.3,0.3C35.4,2.6,35.4,2.7,35.6,2.7z"></path>
        <path class="logo-blue-2" d="M33.8,2.6c-0.2,0-0.4,0.1-0.6,0.2l-0.4,0.1l-0.1,0l0,0.1c0,0.1,0,0.1,0,0.1c0,0.1,0.1,0.1,0.2,0.1
		c0,0,0.1,0,0.1,0c0,0,0,0,0,0c0,0,0,0,0,0c0.1,0.1,0.3,0.2,0.5,0.2c0.3,0,0.5-0.2,0.6-0.5c0,0,0-0.1,0-0.1h0c0.1,0,0.2,0,0.3-0.1
		c0-0.1,0-0.1,0-0.1C34.4,2.5,34.3,2.5,33.8,2.6z"></path>
        <path class="logo-blue-2" d="M18.5,16.6l0.2,0.6l0.6,0c0.1,0,0.3-0.1,0.4-0.1c0,0,0.1,0.1,0.1,0.1c0.1,0.1,0.3,0.2,0.4,0.2
		c0,0.1,0.1,0.2,0.2,0.3l0,0c0,0.2,0,0.6,0.2,1c0.3,0.6,1.2,1,1.7,1c0,0,0.3,0,0.4,0l0.4-0.1l0.1-0.7c0-0.1,0-0.2,0-0.3
		c0.1-0.1,0.2-0.1,0.3-0.2c0,0,0.1-0.1,0.1-0.1c0.1,0,0.2,0,0.3,0c0.5,0,1.1-0.2,1.4-0.6c0.1-0.1,0.2-0.3,0.3-0.4c0.1,0,0.1,0,0.2,0
		l0.4,1l0.9-0.4c0.1,0,0.1-0.1,0.2-0.1l0,0.7l1.2-0.4c0.2-0.1,0.4-0.1,0.6-0.2L29,18.6l1.6-0.7c0.1,0,0.2-0.1,0.3-0.1
		c1,1,2,1.6,2.8,2.1c1.1,0.8,1.7,1.2,1.9,1.8c0,0.1-0.1,0.4-0.2,0.8l-0.1,0.1c-0.1,0-0.1,0-0.2,0c-0.5,0.1-1,0.2-1.4,0.3
		c-0.6-0.3-1.2-0.4-1.9-0.4c-0.6,0-1.3,0.1-2,0.3c-0.6-0.3-1.2-0.4-2-0.4h0c-0.7,0-1.4,0.1-2.2,0.5c-1-0.3-1.8-0.2-2.5,0.3
		c-0.4,0.3-0.6,0.8-0.6,1.3c0,0.6,0.4,1.2,0.9,1.6c0.5,0.3,1.1,0.5,1.9,0.5c0,0,0,0,0.1,0c1.2,0,2.4-0.4,3.2-0.8
		c0.6,0.4,1.2,0.6,1.8,0.7c0.4,0,1.7,0.1,2.4-0.5c0.6,0.3,1.2,0.4,1.9,0.4l0,0c0.7,0,1.4-0.1,1.9-0.4c0.6,0.3,1.3,0.5,2,0.5l0,0
		c0,0,0,0,0.1,0c0.7,0,1.3-0.1,1.8-0.4c0.6,0.3,1.3,0.5,2,0.5h0c0.6,0,1.1-0.1,1.5-0.3c0.5,0.2,1,0.3,1.5,0.3h0c0,0,0,0,0.1,0
		c1.3,0,1.8-0.6,2-0.9c0.3-0.5,0.3-1.1,0-1.7h0c-0.4-0.8-1.3-1.2-2.4-1.2h0c0,0,0,0-0.1,0c-0.3,0-0.6,0-0.9,0.1
		c0.1-0.8,0.6-1.3,1.2-1.8c0.5-0.5,1-0.9,1.2-1.6l0.4-1.4c0.2-0.4,0.3-0.8,0.3-1.3l0.2-2.6L47,14.9c0,0,0-0.1,0-0.1
		c0.8-0.8,3.1-3.3,3.1-6c0-2.4-1.8-4.3-4.1-4.3c-2.3,0-3.3,1.2-3.8,2.1l-1.5,0.9c-0.2,0.1-0.4,0.3-0.6,0.6C40,7.8,40,7.4,39.9,7
		c0-0.2-0.1-0.5-0.2-0.7l0.8-0.4l-0.7-0.8c0,0-0.1-0.1-0.1-0.1c0,0,0-0.1,0-0.2l0,0c-0.1-0.4-0.4-1.2-0.8-1.8
		c-0.2-0.2-0.4-0.5-0.7-0.7c0.1-0.3,0.2-0.7,0.1-1l-0.1-0.5l-0.4-0.2c-0.5-0.2-1.5-0.1-2.2,0.1c-0.2,0.1-0.3,0.1-0.5,0.2
		c-0.3-0.1-0.9-0.2-1.7,0c-0.9,0.2-1.5,0.5-1.8,0.9c0,0,0,0,0,0.1c-0.2,0-0.5,0-0.7,0c-0.2,0-0.4,0.1-0.6,0.2l-0.1,0
		c-0.6,0.3-0.6,0.9-0.6,1c0,0.2,0.1,0.3,0.1,0.5c0,0.4,0,0.8,0,1c0,0.1,0.1,0.4,0.2,0.6c-0.2,0.1-0.6,0.1-0.9,0.1
		c-0.1,0-0.2,0-0.3,0c-0.3,0-0.5,0.1-0.6,0.3c-0.1,0.1-0.1,0.3-0.1,0.4c0.1,0.4,0.3,0.6,0.4,0.7c0,0,0.2,0.2,0.6,0.3
		c0.5,0.1,0.6,0.1,0.9,0.1c0,0.1,0.1,0.3,0.1,0.3c0,0,0,0,0,0.1c0,0.1,0,0.1,0,0.2c0,0.1,0,0.2,0.1,0.3c-0.1,0.1-0.2,0.2-0.3,0.2
		l-1.6-0.8c-0.1-0.3-0.5-1.8-0.6-2.2c0.2,0,0.4-0.1,0.6-0.2C28.8,4.9,29,4.5,29,3.9c0.2-0.2,0.3-0.5,0.3-0.8
		c0.1-0.8-0.4-1.7-0.9-1.9l-0.6-0.3l-0.4,0.4c-0.1,0.1-0.2,0.3-0.3,0.5l0,0c-0.1,0-0.2,0-0.2,0c-0.1-0.2-0.2-0.4-0.3-0.6
		c-0.5-0.6-1.5-0.8-2-0.7l-0.6,0.2l0,0.6c0,0.1,0,0.3,0.1,0.4c0,0-0.1,0.1-0.1,0.1c-0.1,0.2-0.2,0.3-0.2,0.5c0,0,0,0.1,0,0.1
		c0,0,0,0,0,0.1c-0.3-0.1-0.7-0.1-1.3,0.1c-0.7,0.4-1.1,1.3-1,1.9l0.1,0.6L22,5.3c0.1,0,0.2,0,0.3,0c0.1,0.1,0.1,0.2,0.2,0.3
		c0,0,0.1,0.1,0.1,0.1c-0.1,0.5,0.1,1.3,0.5,1.7c0.2,0.1,0.3,0.2,0.5,0.3c0,0.1,0.1,0.1,0.1,0.2c0,0,0,0,0.1,0.1
		c0,0.3,0.2,0.9,0.5,1.3l0,0.3c0,0.3,0.2,0.7,0.4,1.1l-0.2,0.1l0.4,0.8c0.1,0.2,0.3,0.5,0.6,0.7c-0.2,0.1-0.4,0.1-0.6,0.2l-1.3,0.4
		c-0.2,0.1-0.3,0.1-0.5,0.2c0-0.1-0.1-0.2-0.2-0.3c-0.2-0.4-0.7-0.6-1.3-0.6c-0.2-0.2-0.5-0.3-0.8-0.3c-0.8-0.1-1.7,0.4-1.9,0.9
		l-0.3,0.6l0.4,0.4c0.2,0.2,0.3,0.2,0.5,0.3v0c0,0.1,0,0.2,0,0.2c-0.2,0.1-0.4,0.2-0.6,0.3C18.6,15.1,18.3,16.1,18.5,16.6z
		 M27.7,25.2c-1.6,0.7-3.2,0.5-3.7,0.2c-0.3-0.2-0.5-0.5-0.5-0.8c0-0.2,0.1-0.4,0.3-0.6c0.2-0.2,0.5-0.3,0.9-0.3
		c0.9,0,1.9,0.6,2.2,0.8c0.2,0.1,0.4,0.3,0.7,0.5L27.7,25.2z M31.8,25.4c-0.3,0.1-0.9,0.2-1.4,0.1c-0.8-0.1-1.6-0.6-2.3-1.2
		c-0.3-0.2-0.5-0.4-0.8-0.6c-0.1-0.1-0.3-0.2-0.4-0.2c0.3-0.1,0.6-0.1,0.9-0.1c1.5,0,2.3,0.7,3.3,1.4C31.3,25.1,31.6,25.3,31.8,25.4
		z M31.7,23.5c1.5,0,2.3,0.7,3.3,1.4c0.2,0.1,0.4,0.3,0.6,0.5c-0.3,0.1-0.6,0.1-0.9,0.1l0,0c-1.3,0-2.1-0.7-3-1.4l0,0
		c-0.2-0.2-0.5-0.4-0.7-0.5C31.2,23.5,31.5,23.5,31.7,23.5z M26.2,9.9c0.4,0.1,0.4,0.1,0.5,0c0,0,0-0.1,0-0.2c0-0.1-0.2-0.2-0.5-0.3
		C26,9.3,25.6,9.2,25.4,9c-0.3-0.3-0.5-0.8-0.6-1c0.1,0,0.3,0.1,0.4,0.1c0.3,0.1,0.3,0.1,0.4,0.1c0.1,0,0.1-0.1,0.1-0.2
		c0-0.1-0.1-0.2-0.4-0.4c0,0,0,0,0,0c0.1-0.1,0.2-0.1,0.2-0.2c0-0.1,0-0.1-0.1-0.2c-0.1-0.1-0.2-0.1-0.4,0c-0.2,0.1-0.3,0.1-0.4,0.1
		c0.1-0.1,0.3-0.3,0.3-0.6c0,0,0,0,0-0.1c0-0.3-0.2-0.5-0.2-0.6C24.7,6,24.8,6,25,6.2c0.2,0.1,0.2,0.1,0.3,0.1l0.1-0.1l0-0.1
		c0,0,0-0.1-0.2-0.2c0,0,0.1,0,0.1,0c0,0,0.1-0.1,0.1-0.2c0-0.3-0.9-0.5-1.2-0.5c-0.1,0-0.2,0-0.3,0c-0.2,0-0.5,0.1-0.7-0.1
		c-0.1-0.1-0.1-0.2-0.1-0.2l0.1,0.1l0.2-0.1C23.6,4.6,23.9,4.4,24,4c0,0,0-0.1,0-0.1c0-0.2-0.1-0.4-0.2-0.5c0.2,0.1,0.3,0.4,0.4,0.6
		c0,0.1,0,0.1,0.1,0.1c0.1,0.2,1.1,0.9,1.2,0.9c0,0,0,0,0,0l0.1,0l0-0.1c0-0.1,0-0.2-0.5-0.6c0-0.1-0.2-0.4-0.2-0.6
		c0-0.1-0.1-0.1-0.1-0.2c-0.2-0.3-0.4-0.6-0.3-0.9l0.1,0.1c0,0,0.4,0.4,0.8,0.4c0,0,0,0,0,0c0.3,0,0.6-0.2,0.7-0.4c0,0,0,0,0,0
		C26.3,3,26.1,3.3,26,3.5c0,0,0,0.1-0.1,0.1c-0.1,0.1,0,0.3,0.1,0.6l0,0.1c0,0,0,0.1,0.1,0.2c0.1,0.2,0.2,0.3,0.3,0.4l0.2,0.2
		L26.8,5c0,0,0,0,0,0.1c0,0,0,0.1,0.1,0.2c0.1,0.1,0.5,1.5,0.8,2.9l0,0.1l1.9,1.1c-0.1,0.1-0.2,0.3-0.3,0.4l0,0
		c-0.1,0.2-0.3,0.3-0.4,0.5c-0.2,0.2-0.3,0.2-0.4,0.3c-0.1,0-0.4,0.1-0.4,0.5c0,0.1,0,0.1,0,0.2l-0.8-0.2c-0.2-0.1-0.4-0.1-0.6-0.1
		c-0.3,0-0.6-0.1-0.7-0.2c-0.2-0.1-0.4-0.6-0.5-0.8C25.5,9.7,25.8,9.8,26.2,9.9z M23.8,6.3c0.1,0.1,0.4,0,0.5,0
		c0.1,0.1,0.1,0.2,0.1,0.3c0,0.2-0.1,0.2-0.1,0.2c0,0-0.2,0.1-0.4-0.1c-0.1-0.1-0.2-0.4-0.2-0.6C23.6,6.2,23.7,6.2,23.8,6.3z
		 M23.2,4.3c-0.1-0.1-0.4-0.2-0.6-0.2c0,0,0,0,0,0h0c-0.1,0-0.2,0.1-0.3,0.2c0.1-0.2,0.3-0.6,0.5-0.7c0.3-0.2,0.6,0,0.6,0
		c0,0,0.2,0.2,0.1,0.4C23.5,4.1,23.3,4.2,23.2,4.3z M25.9,2.4L25.9,2.4c0,0-0.1,0.2-0.3,0.2c0,0,0,0,0,0c-0.2,0-0.4-0.1-0.4-0.2
		c0-0.1,0.1-0.5,0.1-0.7c0-0.1-0.1-0.2-0.2-0.3c0.2,0,0.6,0.2,0.8,0.4C25.9,2.1,25.9,2.4,25.9,2.4z M27.3,3.7C27.5,3.9,27.8,4,28,4
		c0,0.1,0,0.3-0.1,0.4c-0.2,0.1-0.2,0.1-0.2,0.1c0,0-0.1,0-0.3,0.1c0,0-0.1,0-0.1,0c-0.1,0-0.3,0.1-0.4,0.2l-0.1-0.2
		c-0.1-0.2-0.2-0.3-0.2-0.4c0-0.1,0.1-0.2,0.2-0.2c0.1-0.1,0.1-0.3,0.1-0.4c0-0.2,0-0.5,0.2-0.6c0,0,0,0,0,0l0,0
		C27,3,27,3.4,27.3,3.7z M30.8,8.9c0.4-0.3,0.7-0.4,1-0.5c0.3-0.1,0.6-0.2,1-0.4c0.3-0.2,0.6-0.7,0.8-0.9c0,0,0,0,0,0
		c0.1,0,0.2,0,0.3,0c0.3-0.1,0.5-0.5,0.6-0.8c0.1,0,0.1,0,0.2,0c0.1,0,0.1,0,0.2-0.1C35,6,35.2,5.4,35.2,4.9c-0.1-0.5-0.4-1-0.5-1
		c-0.1,0-0.1,0-0.2,0l-0.1,0l0,0.1c0,0.1,0,0.2,0.1,0.2c0.1,0.1,0.2,0.3,0.2,0.5c0,0.3,0,0.6,0,0.8c0,0,0-0.1,0-0.1
		C34.5,5.1,34.5,5,34.3,5l-0.1,0l-0.1,0c-0.1,0.1-0.1,0.2-0.1,0.4c0,0.1,0.1,0.4,0,0.6c-0.1,0.2-0.2,0.5-0.3,0.6c0-0.1,0-0.1,0-0.2
		c0-0.4,0-0.5-0.1-0.6l-0.1,0l-0.1,0c-0.1,0-0.1,0.1-0.2,0.4c0,0.2-0.1,0.6-0.2,0.8L33.1,7c0,0.1-0.1,0.2-0.2,0.2
		c0-0.1-0.1-0.3-0.2-0.3c0,0-0.2,0-1.2,0.4c-0.2,0.1-0.3,0.2-0.3,0.3c0,0,0,0,0,0c0-0.1,0-0.2,0-0.2l-0.1,0l0,0l0.1,0
		c0,0,0-0.1,0-0.1c0-0.1,0-0.1-0.1-0.2c0-0.1-0.1-0.1-0.1-0.4c0-0.2,0.1-0.3,0.2-0.4c0.1-0.1,0.2-0.1,0.4-0.1l0.1,0l0-0.1
		c0-0.1,0-0.1,0-0.1c0,0.1,0,0.1,0.1,0.2l0,0.1l0.1,0c0.6,0.1,1.1,0,1.3-0.1l0.2-0.1L33.1,6l0,0C33,6,32.9,6,32.9,5.9
		c-0.4-0.2-0.9-0.4-1.3-0.2C31.3,5.8,31,5.9,30.8,6c-0.1,0.1-0.2,0.1-0.3,0.2c-0.4,0.2-0.8,0.2-1.1,0.1c-0.1,0-0.2-0.1-0.3-0.2
		C29,6,29,6,29,6c0,0,0.1,0,0.1,0c0.1,0,0.2,0,0.3,0.1c0.4,0,0.8-0.1,1.1-0.3l0.1,0c0.3-0.1,0.7-0.3,1.1-0.2
		c0.4,0.1,0.9,0.2,1.4,0.5l0.1,0.1l0-0.1c0.2-0.4,0.2-1.1,0.1-1.4c-0.2-0.4-0.7-0.2-1-0.1c-0.1,0-0.1,0.1-0.3,0.1
		c-0.1,0-0.1,0.1-0.2,0.1l0,0l0,0c-0.1,0.1-0.1,0.2,0,0.3c0,0-0.1-0.1-0.1-0.2l0-0.1l-0.1,0C31.4,5,31.3,5,31.2,5
		c-0.3-0.1-0.4-0.2-0.5-0.5c0-0.2,0-0.6,0-0.7c0,0,0.1,0,0.1,0c0.1,0,0.2-0.1,0.3-0.2c0,0,0,0.1,0.1,0.1c0.1,0.1,0.3,0,0.4-0.1
		c0.1-0.1,0.1-0.2,0.1-0.3c-0.1-0.2-0.3-0.3-0.5-0.2c-0.1,0-0.2,0.1-0.2,0.2c0,0-0.1,0.1-0.1,0.1c0,0,0,0,0,0
		c-0.1,0-0.1-0.1-0.1-0.2C30.6,3,30.8,3,31,3c0.4-0.1,0.8,0,1,0c0.1,0,0.2,0,0.2,0c0.1,0,0.1-0.1,0.2-0.1c0.1-0.1,0.1-0.2,0-0.4
		c0,0,0,0,0-0.1c0.1-0.1,0.4-0.3,1.2-0.5c0.6-0.1,1-0.1,1.2,0c-0.1,0.1-0.1,0.1-0.1,0.2c0,0.1,0,0.1,0.1,0.1c0.1,0.1,0.3,0,0.4-0.1
		c0.2-0.1,0.4-0.4,0.8-0.5c0.5-0.2,1.2-0.2,1.3-0.1c0,0.1,0,0.4-0.2,0.7c-0.1,0.2-0.3,0.4-0.5,0.6c-0.3,0.3-0.4,0.4-0.2,0.6l0.1,0
		l0.1,0c0.1,0,0.1,0,0.7-0.6C37.4,3,37.7,3.2,38,3.6c0.3,0.4,0.5,1.1,0.7,1.5l0,0c0,0.1,0.1,0.2,0.1,0.3c0,0.1,0.1,0.2,0.1,0.2
		c-0.1,0-0.2,0-0.4,0c-0.2,0-0.5-0.2-0.7-0.3c-0.2-0.1-0.3-0.1-0.4,0l-0.1,0.1l0.1,0.1c0,0,0,0,0.1,0.1c0.3,0.2,1.1,0.7,1.3,1.6
		c0.1,0.5,0.1,1,0.2,1.3c0,0.2,0,0.4,0,0.5c0,0.1,0.1,0.2,0.1,0.3c-0.2-0.1-0.5-0.2-0.7-0.3c-0.3-0.2-0.6-0.5-0.7-0.7
		c-0.2-0.2-0.2-0.3-0.4-0.3l-0.1,0l0,0c-0.2,0.2,0.5,0.9,0.5,1c0.2,0.2,0.6,0.5,0.7,0.6c0,0.1,0,0.4-0.1,0.8c0,0.1-0.1,0.2-0.1,0.3
		l0,0c-0.1,0.2-0.2,0.4-0.2,0.7c0,0.1,0,0.3,0,0.4c-0.2-0.1-0.6-0.3-0.8-0.7c-0.3-0.4-0.5-1-0.7-1.3c-0.1-0.3-0.1-0.4-0.2-0.4
		l-0.1,0l-0.1,0c-0.3,0.2,0.4,1.6,0.4,1.6c0.2,0.4,0.5,0.9,0.6,1c0,0-0.1,0.1-0.2,0.2c-0.1,0.2-0.3,0.5-0.5,0.7
		c-0.1,0.2-0.4,0.8-0.4,0.9c0,0,0,0.1,0,0.1c-0.2-0.1-0.5-0.3-0.8-0.8c-0.2-0.4-0.3-1-0.3-1.4c0-0.3,0-0.5-0.2-0.5
		c-0.1,0-0.1,0-0.1,0.1c-0.1,0.2-0.1,1,0,1.3c0,0.4,0.3,0.9,0.4,1.1c-0.2,0.1-0.5,0.3-0.6,0.4c-0.1,0-0.3,0.2-0.5,0.4
		c-0.2,0.2-0.4,0.4-0.5,0.5c-0.2-0.4-0.7-1.9-0.6-2.9c0.1-0.7,0.5-1.2,0.7-1.5c0.1-0.2,0.2-0.3,0.1-0.4c0,0-0.1-0.1-0.1-0.1
		c0,0,0,0-0.1,0c-0.2,0.1-0.8,0.9-1,1.5c-0.1,0.6-0.2,1.1-0.2,1.4c-0.1,0.1-0.4,0.2-0.8,0.4c-0.3,0.1-0.7,0.2-1,0.2
		c0-0.1,0.1-0.2,0.1-0.3c0-0.2,0.1-0.4,0.1-0.6c0.1-0.4,0.1-0.8,0.2-1.2c0.2-0.6,0.6-1.1,0.7-1.4c0.1-0.2,0.2-0.3,0.1-0.4l0-0.1
		l-0.1,0c-0.1,0-0.3,0-0.8,0.8c-0.2,0.2-0.4,0.7-0.5,0.8c-0.2,0-0.6-0.1-1-0.2c-0.4-0.1-0.7-0.2-0.8-0.3c0.1,0,0.3-0.1,0.6-0.4
		c0.1-0.1,0.3-0.3,0.4-0.5C30,9.6,30.3,9.2,30.8,8.9z M45.9,5.5c1.8,0,3.1,1.4,3.1,3.3c0,2.8-3,5.5-3,5.5L46,14.4v0.1
		c0,2.5-1.7,3-1.7,3l-1.7,0.5h1.8c0.8,0,1.5-0.5,2-0.9c-0.4,2-2.3,2-2.4,2l-0.6,0l0.4,0.4c0.3,0.3,1.1,0.3,1.8,0
		c-0.2,0.3-0.5,0.6-0.8,0.9c-0.7,0.7-1.5,1.5-1.5,2.7l-1.2,0.3c-0.1,0-0.1,0-0.1,0c0,0-0.1-0.1-0.2-0.1c-0.2-0.1-0.3-0.2-0.5-0.2
		l-0.1,0c-0.1,0-0.1-0.1-0.2-0.1l0,0C41,23,41,23,40.9,23l-0.1,0c0,0-0.1,0-0.2-0.1l0,0c-0.1,0-0.1,0-0.2-0.1
		c-0.5-0.1-1-0.1-1.6-0.1c-0.5,0.1-0.9,0.2-1.3,0.3c-0.4-0.2-0.8-0.3-1.2-0.4c-0.1,0-0.1,0-0.2,0c0.2-0.4,0.3-0.8,0.2-1.2
		c-0.3-1.1-1.1-1.6-2.3-2.4c-0.6-0.4-1.5-1-2.3-1.7c0.3-0.2,0.6-0.4,0.8-0.6c0.3-0.2,0.5-0.5,0.6-0.7l0.2,0.2l0.1-0.1
		c0,0,0.7-1.1,1.2-1.4c0.4-0.2,0.8-0.5,0.9-0.5l0.8,0.4l0-0.1c0.1-0.3,0.6-1.2,0.7-1.3c0,0,0.1-0.1,0.1-0.1c0.5,1.7,1.4,4.4,2,5.2
		c0.2,0.3,0.5,0.5,0.8,0.8c0.3,0.2,0.5,0.4,0.8,0.7l0.2,0.2l0-0.2c0.1-2.6,2.1-4.5,3.8-6.2c1.6-1.5,3.1-2.9,3.1-4.8
		C48,7.5,47.4,6,45.9,6c-0.6,0-0.9,0.3-1.1,0.5c-0.2,0.3-0.4,0.7-0.4,1c0,0.6,0.3,1,0.9,1c0.3,0,0.5-0.1,0.6-0.3
		c0.2-0.2,0.2-0.5,0.2-0.7c0.3,0.2,0.7,0.6,0.7,1.3c0,0.9-1,1.3-1.4,1.3H45l0.2,0.3c0.4,0.9,0.1,1.4-0.2,1.7c-0.3,0.3-0.6,0.5-1,0.6
		c0.2-0.2,0.3-0.4,0.3-0.8c0-0.6-0.5-1-0.9-1.4c-0.3-0.3-0.6-0.6-0.8-0.9l-0.3-0.5l-0.1,0.6c0,0-0.1,0.3-0.6,0.3
		c-0.3,0-0.5-0.1-0.6-0.3c-0.1-0.2-0.2-0.4-0.2-0.6c0-0.3,0.1-0.5,0.2-0.7c0,0.1,0,0.1,0.1,0.2C41.1,8.8,41.2,9,41.5,9
		c0.5,0,0.8-0.5,1.1-1.1C43,6.9,43.7,5.5,45.9,5.5z M39.5,25.5c-0.3,0.1-0.6,0.1-0.9,0.1h0c-1.3,0-2.1-0.7-3-1.4l0,0
		c-0.2-0.2-0.5-0.4-0.7-0.5c0.3-0.1,0.5-0.1,0.8-0.1c1.5,0,2.3,0.7,3.3,1.4C39.1,25.2,39.3,25.3,39.5,25.5z M39.5,23.7
		c1.4,0,2.1,0.7,2.8,1.4c0.2,0.2,0.4,0.4,0.6,0.6c-0.1,0-0.3,0-0.4,0l0,0c-1.3,0-2.1-0.7-3-1.4l0,0c-0.2-0.2-0.5-0.4-0.7-0.5
		C39,23.7,39.2,23.7,39.5,23.7z M42.7,11.3c0.2,0.2,0.6,0.5,0.6,0.7c0,0.1-0.1,0.2-0.2,0.3L42,13.4l1.3,0.4c-1,1-2.1,2.3-2.7,3.9
		l-0.1,0.4c-0.3-0.3-0.3-0.4-0.4-0.4c-0.5-0.6-1.3-2.9-1.9-4.8l0.5,0.1l0.2-0.8c0-0.2,0.1-0.3,0.1-0.8c0-0.1,0.1-0.2,0.1-0.3
		c0-0.1,0.1-0.2,0.1-0.4c0-0.1,0.1-0.2,0.1-0.3l0.8,0.1c0.2,0.3,0.7,0.6,1.4,0.6c0.3,0,0.5,0,0.7-0.1C42.4,11.1,42.6,11.2,42.7,11.3
		z M27.2,11.1l1,0c0.3,0.3,0.8,0.5,1.1,0.5c-0.4,0.1-0.6,0.2-1.4,0.4c-0.1,0-0.4,0-0.4,0c-0.4,0-0.4-0.1-0.6-0.2l-0.1-0.1
		c-0.3-0.1-0.6-0.4-0.7-0.6C26.2,11.2,26.5,11.1,27.2,11.1z M30.2,12.6L30.2,12.6c0,0.2,0,0.4-0.1,0.6c0,0.1-0.1,0.1-0.1,0.2
		c-0.1,0.1-0.2,0.2-0.1,0.4c0,0.1,0.1,0.2,0.2,0.3c0.1,0.1,0.3,0.1,0.5,0.1c0.1,0,0.6,0,1.1-0.2c0.3-0.1,0.5-0.2,0.7-0.3
		c0.1,0.6,0.2,1.1,0.4,1.4c-0.1,0.1-0.1,0.2-0.2,0.3c-0.6,0.8-1.7,1.4-2.2,1.6l0,0c0.5-0.8,1-1.9,0.9-2.1c0-0.1-0.1-0.1-0.2-0.1
		h-0.1l0,0.1c0,0-0.7,1.8-2.6,2.5l0-0.2c0.6-0.9,0.8-1.9,0.7-2.1L29,14.9h-0.1c-0.1,0-0.2,0.1-0.2,0.3c-0.1,0.3-0.2,0.7-0.6,1.1
		c-0.3,0.3-0.9,0.6-1.2,0.8c0.6-0.7,0.7-1.7,0.7-1.9c0-0.1-0.1-0.1-0.1-0.1l-0.1,0l-0.1,0c-0.1,0-0.1,0.1-0.1,0.2
		c0,0.2-0.1,0.5-0.3,0.8c-0.3,0.3-0.7,0.4-0.9,0.4c0-0.1,0.1-0.2,0.1-0.3c0.1-0.1,0.1-0.2,0.1-0.2l0-0.1l-0.1,0
		c-0.1-0.1-0.2,0-0.5,0.1l0,0c0,0,0,0,0-0.1c-0.1-0.1-0.1-0.2-0.3-0.2c-0.1,0-0.1,0-0.2,0.1c-0.1,0.1-0.1,0.2,0,0.5
		c0.1,0.2,0.1,0.3,0.1,0.4c-0.1-0.1-0.3-0.3-0.6-0.3c-0.3,0-0.6,0.2-0.7,0.2c0-0.1,0.1-0.2,0.2-0.4c0.1-0.1,0.1-0.2,0.1-0.3
		l-0.1-0.1l-0.1,0c0,0-0.1,0-0.2,0.2c0-0.1,0-0.1,0-0.1c0-0.1-0.1-0.1-0.2-0.1c-0.3,0-0.5,1.2-0.5,1.2c0,0.1,0,0.2,0,0.3
		c0,0.2,0.1,0.5-0.1,0.7c-0.1,0.1-0.2,0.1-0.2,0.1l0.1-0.1l-0.1-0.2c-0.1-0.1-0.3-0.5-0.7-0.5c0,0-0.1,0-0.1,0
		c-0.2,0-0.4,0.1-0.5,0.2c0.1-0.2,0.4-0.3,0.6-0.4c0.1,0,0.1,0,0.1-0.1c0.1-0.1,0.9-1,0.9-1.2l0-0.1l-0.1,0c-0.1,0-0.2,0-0.6,0.5
		c-0.2,0.1-0.4,0.2-0.6,0.2c-0.1,0-0.1,0.1-0.2,0.1c-0.3,0.2-0.6,0.4-0.9,0.3l0.1-0.1c0.1-0.1,0.4-0.4,0.4-0.8
		c0-0.3-0.2-0.6-0.4-0.7c0,0,0,0,0,0c0.3-0.1,0.6,0.1,0.7,0.2c0,0,0.1,0.1,0.1,0.1c0.1,0.1,0.3,0,0.6-0.1l0.2-0.1
		c0.2-0.1,0.3-0.2,0.4-0.3l0.2-0.2l0.1-0.1c0.1-0.1,0.2-0.1,0.3-0.2c0.2-0.1,3.8-1.2,7.1-2.2C30.3,12.2,30.2,12.4,30.2,12.6z
		 M24.3,17.3c0-0.1,0-0.4,0-0.5c0.1-0.1,0.2-0.1,0.3-0.1c0.2,0,0.2,0.1,0.2,0.1v0c0,0,0.1,0.2-0.1,0.4h0c-0.1,0.1-0.4,0.2-0.6,0.2
		C24.2,17.4,24.2,17.4,24.3,17.3z M21.5,17.7c0,0,0.2-0.2,0.4-0.1c0.2,0,0.3,0.2,0.4,0.3c-0.1,0.1-0.2,0.4-0.2,0.6
		c0,0.1,0.1,0.2,0.2,0.3c-0.2-0.1-0.6-0.3-0.7-0.5C21.4,17.9,21.5,17.7,21.5,17.7C21.5,17.7,21.5,17.7,21.5,17.7z M22.5,14.4
		c-0.2,0.1-0.3,0.2-0.4,0.2c-0.1,0-0.2-0.1-0.2-0.2c-0.1-0.1-0.2-0.1-0.4-0.1c-0.2,0-0.5,0-0.6-0.2c0,0,0,0,0,0l0,0
		c0.1,0,0.6,0,0.8-0.3c0.2-0.2,0.3-0.5,0.3-0.7c0.1,0,0.3,0,0.4,0.1c0.1,0.2,0.1,0.2,0.1,0.2c0,0,0,0.1,0.1,0.3c0,0,0,0.1,0,0.1
		c0,0.1,0.1,0.3,0.2,0.4L22.5,14.4z M21.4,13.5c-0.1,0.1-0.4,0.2-0.5,0.2c-0.1-0.1-0.3-0.4-0.4-0.5c-0.1-0.1-0.2-0.1-0.3-0.1
		c0,0-0.1,0-0.1,0c0.2-0.1,0.6-0.3,0.8-0.3c0.4,0,0.5,0.3,0.5,0.3C21.5,13.1,21.5,13.3,21.4,13.5z M20.3,15.2c0.1,0,0.1,0,0.1,0
		c0,0,0.2,0.1,0.2,0.3c0,0.2-0.1,0.4-0.2,0.5c-0.1,0-0.5-0.1-0.7-0.1c-0.1,0-0.2,0.1-0.3,0.2c0-0.2,0.2-0.6,0.4-0.8
		C20,15.2,20.2,15.2,20.3,15.2z M46.8,25.2c-0.2,0.3-0.6,0.5-1.3,0.5c-0.6,0-1-0.1-1.4-0.4l-0.1-0.1l0,0c-0.4-0.2-0.7-0.6-1-0.9l0,0
		c0,0-0.1-0.1-0.1-0.1c0.8-0.2,1.7-0.4,2.4-0.4c0,0,0,0,0,0c0.7,0,1.3,0.3,1.6,0.8C46.9,24.8,46.9,25,46.8,25.2z M28,2.5L28,2.5
		C28,2.4,28,2.2,28,2.1c0.1,0.2,0.3,0.5,0.3,0.8c0,0.4-0.3,0.5-0.3,0.5c0,0-0.2,0.1-0.4-0.1c-0.1-0.1-0.2-0.4-0.2-0.5
		C27.6,2.8,27.8,2.7,28,2.5z"></path>
        <path class="logo-blue-2" d="M23,33.5c-0.2,0-0.5,0-0.7,0c-0.3,0-0.7,0.1-1.1,0.2c-0.6,0.1-0.8,0.6-0.9,0.9c0,0.1,0,0.1,0,0.2
		c-0.1,0-0.2,0-0.3,0c-0.4,0.1-0.8,0.4-0.8,0.9l0,0.1c0,1.1,0.6,2,1.6,2.2c0.2,0,0.4,0.1,0.6,0c0.1,0.2,0.2,0.3,0.4,0.4
		c-0.2,0.2-0.4,0.4-0.4,0.7c0,0.3,0.1,0.5,0.3,0.7c-0.1,0.2-0.2,0.4-0.2,0.6c-0.1,0.3,0,0.7,0.2,0.9c0,0,0,0-0.1,0
		c-0.3-0.2-0.7-0.3-1-0.1c-0.3,0.2-0.5,0.6-0.4,1c0.2,1,1.1,1.6,2.2,1.7c0.4,0,0.9,0,1.3-0.2c0.1,0,0.2-0.1,0.3-0.1
		c0.3,0.3,0.7,0.5,1.1,0.6c0.2,0.1,0.5,0.1,0.8,0.1c0.8,0,1.4-0.3,1.9-0.7c0,0,0,0,0,0c0.5,0,0.9,0,1.3-0.2c0.7-0.3,1.2-0.8,1.6-1.5
		c0.2-0.4,0.1-0.8-0.2-1.1c-0.3-0.2-0.6-0.3-0.9-0.1c0.1-0.2,0.1-0.4,0-0.6c-0.2-0.4,0-0.9,0.2-1.4l0.1-0.2c0-0.1,0.1-0.2,0.1-0.4
		c0.2-0.1,0.4-0.2,0.5-0.4c0.2-0.4,0.1-0.8-0.2-1.1c-0.2-0.2-0.3-0.3-0.3-0.6c0-0.1,0-0.2,0-0.2c0-0.1,0-0.1,0-0.2
		c0.2-0.2,0.3-0.4,0.3-0.7c0-0.4-0.3-0.8-0.7-0.9c-0.1,0-0.1-0.1-0.2-0.1c0-0.1-0.1-0.1-0.1-0.1C29.3,33,29,32.5,28.7,32l0-0.1
		c-0.1-0.1-0.1-0.2-0.2-0.4C28.3,31.2,28,31,27.7,31c-0.1,0-0.2,0-0.4,0.1c-0.2-0.1-0.3-0.2-0.5-0.2c-0.3,0-0.6,0.2-0.8,0.4
		c-0.3,0.5-0.5,0.9-0.7,1.4l0,0c-0.2,0-0.3,0-0.5,0.1c-0.5,0.1-0.9,0.3-1.2,0.7C23.4,33.5,23.3,33.5,23,33.5z M26.8,32.3
		C26.8,32.4,26.8,32.4,26.8,32.3c-0.1,0.2-0.1,0.3-0.2,0.4l0,0c0,0,0,0,0,0c-0.1,0-0.1,0-0.2,0c-0.1,0-0.1,0-0.2,0
		c0.1-0.3,0.2-0.6,0.4-1c0.1,0.1,0.1,0.2,0.2,0.4c0,0,0,0,0,0C26.9,32.2,26.8,32.3,26.8,32.3z M26.6,34.2c0,0.2,0,0.4,0.3,0.6l0.1,0
		l0-0.1c0.1-0.1,0-0.3,0-0.4c0,0,0-0.1,0-0.1c0-0.3,0-0.6,0.1-0.8c0.1-0.4,0.3-0.7,0.5-1c0.1-0.1,0.1-0.2,0.2-0.3
		c0,0.1,0.1,0.2,0.2,0.3c0.3,0.6,0.6,1.2,0.6,1.8c0,0.2,0,0.4-0.1,0.6c0,0,0,0.1-0.1,0.1c0,0.1-0.1,0.1-0.1,0.2
		c-0.1,0.1,0,0.2,0,0.2c0,0,0.1,0.1,0.2,0c0.1,0,0.2-0.2,0.3-0.4c0-0.1,0.1-0.2,0.1-0.3l0.1,0.2c0,0.1,0.1,0.3,0.1,0.4
		c0,0.1,0,0.2,0,0.4c0,0.1,0,0.2,0,0.3c0,0.2,0.1,0.4,0.1,0.6l-0.1-0.1l0,0.2c0,0.1,0,0.2,0,0.4c0,0.1,0,0.2,0,0.3
		c0,0.3-0.1,0.5-0.2,0.7c0,0.1,0,0.1-0.1,0.2c-0.2,0.4-0.3,0.9-0.3,1.5c0-0.1,0-0.1-0.1-0.2l-0.1-0.2l-0.1,0.1
		c-0.4,0.5-0.5,1.1-0.3,1.6c0.3,0.7,0.9,0.9,1.6,0.7c0,0,0,0,0.1,0c-0.2,0.3-0.5,0.6-0.9,0.7c-0.4,0.2-0.9,0.2-1.5,0.1
		c-0.2-0.1-0.5-0.1-0.7-0.2c0,0,0,0-0.1-0.1c-0.1-0.1-0.3-0.2-0.4-0.2c-0.1,0-0.1,0-0.1,0.1c0,0.1,0,0.2,0.1,0.4
		c0.1,0.1,0.1,0.2,0.2,0.3c0.2,0.1,0.4,0.2,0.5,0.2c-0.5,0.3-1.1,0.3-1.5,0.2c-0.3-0.1-0.5-0.2-0.7-0.4c-0.1-0.1-0.2-0.2-0.3-0.3
		l0,0c0,0-0.1-0.1-0.2-0.1c0,0,0,0,0,0c-0.1,0-0.2,0.1-0.2,0.2c0,0-0.1,0.1-0.1,0.1c-0.1,0.1-0.2,0.1-0.4,0.2
		c-0.3,0.1-0.6,0.1-1,0.1c-0.3,0-0.9-0.1-1.2-0.7c0.2,0.1,0.4,0.1,0.6,0c0.3-0.1,0.6-0.3,0.8-0.6c0.1-0.2,0.1-0.4,0.2-0.5
		c0-0.1,0.1-0.2,0.1-0.4c0.1-0.2,0.2-0.3,0.3-0.5l0.1-0.2l-0.2,0c-0.2,0-0.3,0.1-0.5,0.2c0.1-0.2,0.3-0.5,0.5-0.7
		c0.1-0.1,0.1-0.1,0.2-0.2c0.1-0.1,0.3-0.3,0.4-0.4l0.2-0.3l-0.4,0.2c-0.2,0.1-0.4,0.2-0.6,0.2c0.1-0.1,0.3-0.1,0.4-0.2
		c0,0,0.1,0,0.1-0.1c0.2-0.1,0.5-0.3,0.6-0.5l0-0.1l0,0c0.1,0,0.2-0.1,0.4-0.1c0.1,0,0.2-0.1,0.2-0.1c0.1-0.1,0.2-0.1,0.4-0.2
		c0.2,0,0.4,0,0.6,0.2c0,0,0.1,0.1,0.1,0.1c0.1,0.1,0.1,0.2,0.3,0.2l0.1,0v-0.1c0-0.8-0.9-0.8-1.2-0.8c-0.6,0-1.1,0-1.7,0.1
		c-0.1,0-0.3,0-0.4,0.1c0,0-0.1,0-0.1,0c-0.1,0-0.1,0-0.2,0c0,0-0.1-0.1-0.2-0.1c0,0,0.1-0.1,0.2-0.1l0,0c0.5-0.2,1-0.2,1.5-0.3
		c0.1,0,0.1,0,0.2,0c0.4,0,0.9,0,1.1-0.3l0.1-0.1l0,0l0-0.1c0-0.2,0-0.4-0.1-0.5c-0.2-0.2-0.4-0.3-0.7-0.3c-0.3,0-0.6,0-0.9,0
		c-0.2,0-0.4,0-0.6,0l0,0c-0.3,0-0.6,0-0.9,0c-0.1,0-0.3,0-0.4-0.1c0-0.1,0-0.1,0-0.2c0-0.1,0.1-0.2,0.2-0.2c0,0,0,0,0,0
		c0,0,0.2-0.1,0.1-0.2c0-0.1-0.1-0.1-0.2-0.1c-0.2,0-0.3,0.1-0.5,0.3c0-0.1,0-0.2,0-0.3c0-0.1,0-0.1,0-0.1c0,0,0.1,0,0.1,0
		c0.3-0.1,0.7-0.1,1-0.1c0.2,0,0.5,0,0.7,0c0.2,0,0.5,0,0.7,0c0.3,0,0.4-0.1,0.6-0.3c0.2-0.2,0.4-0.4,0.7-0.4c0.1,0,0.3,0,0.4,0
		c0.1,0,0.2,0,0.3,0c0.3,0,0.5-0.1,0.8-0.2l0,0C26.5,33.7,26.5,33.9,26.6,34.2L26.6,34.2z M28.9,34.7l-0.1,0c0-0.1,0-0.1,0-0.2
		c0.1,0.1,0.1,0.1,0.2,0.1C29,34.7,29,34.7,28.9,34.7z M23.2,36.1C23.2,36.1,23.2,36.1,23.2,36.1C23.2,36.1,23.2,36.1,23.2,36.1
		C23.2,36.1,23.2,36.1,23.2,36.1z M22.4,36.1C22.5,36.1,22.5,36.1,22.4,36.1C22.5,36.1,22.5,36.1,22.4,36.1
		C22.5,36.1,22.5,36.1,22.4,36.1z M23.9,36.9C23.9,36.9,23.9,36.9,23.9,36.9C23.9,36.9,23.9,36.9,23.9,36.9L23.9,36.9z M23.4,36.9
		C23.4,36.9,23.3,37,23.4,36.9C23.3,36.9,23.3,36.9,23.4,36.9C23.4,36.9,23.4,36.9,23.4,36.9z M23.9,36.1
		C23.9,36.1,23.9,36.1,23.9,36.1C23.9,36.1,23.9,36.1,23.9,36.1C23.9,36.1,23.9,36.1,23.9,36.1z M24,36.2L24,36.2L24,36.2L24,36.2z
		 M23.4,36.8L23.4,36.8L23.4,36.8L23.4,36.8z M22.5,36.7l0.2-0.1c0,0,0,0,0.1,0l0,0.1c0,0,0,0,0,0l0,0L22.5,36.7
		c0.1,0-0.7,0.4-1.2,0.4c-0.1,0-0.1,0-0.2,0c-0.4-0.1-0.6-0.4-0.7-0.8c0.2,0.3,0.5,0.5,0.9,0.6C21.6,37,22.1,36.9,22.5,36.7z
		 M22.7,37.1C22.8,37,22.8,37,22.7,37.1C22.8,37,22.8,37,22.7,37.1C22.8,37.1,22.8,37.1,22.7,37.1z"></path>
        <path class="logo-blue-2" d="M25.2,34.3c-0.2,0-0.4,0.1-0.5,0.1l-0.4,0.1l-0.1,0l0,0.1c0,0.1,0,0.1,0,0.1c0,0.1,0.1,0.1,0.2,0.1
		c0,0,0,0,0.1,0c0,0,0,0,0,0c0,0,0,0,0,0c0.1,0.1,0.3,0.2,0.5,0.2c0.3,0,0.5-0.2,0.6-0.5c0,0,0,0,0-0.1h0c0.1,0,0.2,0,0.2-0.1
		c0,0,0-0.1,0-0.1C25.8,34.3,25.7,34.2,25.2,34.3z"></path>
        <path class="logo-blue-2" d="M25,39.5C25.1,39.5,25.1,39.5,25,39.5c0.1,0,0.1-0.1,0.1-0.1c0.1,0,0.2-0.1,0.2-0.2c0.1-0.1,0-0.2,0-0.2
		c-0.1-0.1-0.3,0-0.3,0c-0.1,0-0.2,0.1-0.3,0.2c-0.2,0.1-0.5,0.3-0.6,0.6c-0.1,0.1-0.1,0.2,0,0.3c0,0,0.1,0.1,0.2,0c0,0,0,0,0.1,0
		c-0.2,0.5-0.2,1-0.2,1.4l0,0.3l0.2-0.3c0-0.1,0.1-0.2,0.1-0.3c0,0.2,0.1,0.3,0.1,0.4l0,0.1c0,0.1,0.1,0.2,0.1,0.3l0.3,0.6L25,41.8
		c0-0.1,0-0.2,0-0.4c0-0.2,0-0.4,0-0.6c0,0,0-0.1,0-0.1c0-0.1,0-0.3-0.1-0.4l0-0.1c0.1-0.1,0.1-0.2,0.2-0.3c0.1-0.1,0.2-0.2,0.3-0.2
		l0.3-0.2l-0.4,0C25.2,39.5,25.1,39.5,25,39.5z"></path>
        <path class="logo-blue-2" d="M26.8,41.4l0.1,0.1l0-0.1c0.1,0.1,0.2,0.3,0.4,0.3c0.1,0,0.1,0,0.2-0.1l0.1-0.1l-0.1-0.1
		c-0.2-0.2-0.5-0.5-0.6-1l0-0.1l-0.1,0c0,0-0.1,0-0.1,0c0-0.2,0-0.4,0-0.6c0-0.2,0-0.3,0-0.5v-0.2l-0.2,0.2
		c-0.3,0.3-0.4,0.7-0.4,1.2C26.3,40.9,26.5,41.2,26.8,41.4z"></path>
        <path class="logo-blue-2" d="M27,37.7c0,0.3,0,0.5,0,0.8l0,0.1l0.1,0c0.3,0,0.5-0.2,0.7-0.4c0.3-0.4,0.4-0.9,0.4-1.4c0,0-0.1-0.6-0.4-0.7
		c-0.1,0-0.2,0-0.3,0.1l-0.1,0.1l0.1,0.1c0.2,0.1,0.2,0.4,0.2,0.7c0,0.3-0.1,0.6-0.3,0.8c0-0.2-0.1-0.5-0.3-0.7l-0.2-0.3l0.1,0.5
		C27,37.5,27,37.6,27,37.7z"></path>
        <path class="logo-blue-2" d="M46,65.3c0.1,0,0.2,0,0.3,0c0.3,0,0.5-0.1,0.8-0.2c0.3-0.1,0.6-0.3,0.8-0.5c0,0,0.1-0.1,0.1-0.1
		c0,0,0-0.1,0.1-0.1c0,0,0,0,0,0c0.3,0,0.6,0,0.8,0c0.4-0.1,0.9-0.2,1.2-0.5c0.3-0.2,0.6-0.6,0.8-0.9c0.1-0.1,0.1-0.2,0.2-0.3
		c0.2-0.4,0.1-0.8-0.2-1.1c-0.3-0.2-0.7-0.3-1-0.1c0-0.1-0.1-0.4-0.1-0.8c0.4-0.1,0.7-0.4,0.9-0.8c0.2-0.3,0.2-0.6,0-0.9
		c0-0.1,0-0.2,0-0.3c0-0.2-0.1-0.3-0.2-0.5c0-0.1,0-0.3,0-0.4c-0.1-0.3-0.3-0.6-0.6-0.7c0.1-0.4-0.1-0.7-0.4-0.9c0,0,0-0.1-0.1-0.4
		c-0.1-0.4-0.2-0.9-0.6-1.4c0.1-0.2,0.2-0.5,0.1-0.7c0-0.1,0-0.3-0.1-0.5c-0.1-0.4-0.4-0.7-0.7-0.7c-0.4-0.1-0.7,0.1-0.9,0.5
		c-0.1,0.1-0.1,0.2-0.2,0.3c0,0,0,0-0.1,0c-0.2-0.1-0.4-0.2-0.6-0.1c-0.1-0.3-0.3-0.5-0.5-0.7c-0.2-0.2-0.6-0.3-0.8-0.2
		c-0.3,0.1-0.5,0.3-0.6,0.6c0,0.2-0.1,0.3-0.1,0.4c0,0,0,0.1,0,0.1c0,0,0,0-0.1,0.1c-0.1,0.1-0.2,0.2-0.3,0.4
		c-0.1,0.1-0.2,0.5-0.3,1c-0.1,0-0.2,0.1-0.3,0.1l0,0c0,0,0,0-0.1,0c-0.3,0-0.6,0.2-0.8,0.4l0,0c-0.1,0-0.2,0-0.2,0.1
		c0,0-0.1,0-0.1,0c-0.2-0.2-0.5-0.4-0.9-0.4c-0.4,0-0.9,0-1.2,0.3c-0.3,0.2-0.4,0.5-0.4,0.9l0,0.1c0,0,0,0,0,0c0,0,0,0.1,0,0.1
		c-0.2,0.4-0.5,1.1,0,1.6c0.1,0.1,0.2,0.2,0.3,0.3c0,0.1,0,0.2,0,0.2c0.1,0.3,0.3,0.6,0.7,0.8c0,0.1,0,0.2,0,0.3c0,0,0,0,0,0l0,0
		c0,0,0,0.1,0,0.1c-0.3,0.3-0.3,0.7-0.1,1c0.1,0.2,0.3,0.3,0.5,0.4c-0.1,0.1-0.2,0.2-0.2,0.4c0,0.1,0,0.2,0,0.4
		c-0.1,0-0.2,0.1-0.3,0.1c-0.3,0.2-0.5,0.6-0.4,1c0,0.1,0.1,0.2,0.1,0.3c0.1,0.3,0.3,0.6,0.6,0.8c0.2,0.2,0.5,0.3,0.8,0.4
		c0.3,0.1,0.7,0.2,1.1,0.1c0.2,0,0.4,0,0.6,0c0.2,0,0.4-0.1,0.6-0.1c0.1,0,0.2-0.1,0.3-0.1c0.1,0.1,0.1,0.1,0.2,0.2
		c0.4,0.3,0.9,0.5,1.5,0.6C45.8,65.3,45.9,65.3,46,65.3z M41.7,63.8c-0.2-0.1-0.3-0.1-0.5-0.3c-0.1-0.1-0.2-0.2-0.3-0.4
		c0.2,0.1,0.3,0.1,0.5,0.1c0.1,0,0.3-0.1,0.4-0.1c0.3-0.1,0.4-0.3,0.6-0.6l0.1-0.1c0.1-0.2,0.2-0.3,0.2-0.4l0.1-0.3l-0.2,0
		c0,0-0.1,0-0.2,0c-0.1,0-0.2,0.1-0.3,0.1c-0.2,0-0.2,0-0.3,0c0,0-0.1,0-0.1,0c0.1,0,0.2-0.1,0.2-0.1c0.2-0.1,0.4-0.2,0.7-0.4l0,0
		c0.1-0.1,0.3-0.3,0.5-0.6c0-0.1,0.1-0.3,0.1-0.4l0,0c0.3-0.1,1.4-0.3,1.4-0.3l0.5-0.1l-0.5-0.1c0,0-0.6-0.1-0.7-0.2
		c-0.2,0-0.4,0-0.4,0c-0.2,0-0.4,0.1-0.6,0.2c0,0,0,0,0,0l0-0.2l-0.2,0.1c0,0-0.1,0-0.1,0l0.3-0.3l-0.6,0.2
		c-0.3,0.1-0.4,0.3-0.6,0.4l0-0.1l-0.3,0l0,0.1c0,0.1-0.2,0.2-0.3,0.3c0-0.1,0-0.1,0.1-0.2l0,0c0-0.1,0.1-0.2,0.2-0.3l0.3-0.1
		l-0.3-0.1c-0.1,0-0.1,0-0.1-0.1c0,0,0-0.1,0-0.1c0,0,0,0,0-0.1c0.1-0.1,0.3,0,0.4,0c0.1,0,0.3,0,0.4,0c0,0,0.2,0,0.3-0.1l0.1,0
		l0-0.1c0.2-0.8,0.4-1.2,0.7-1.5c-0.2,0.4-0.3,1-0.1,1.5l0,0l0,0l0,0l0.1,0c0.2,0,0.3,0,0.5,0l0.2,0c0,0,0.1,0,0.1,0
		c0.1,0,0.3,0,0.4,0c0.1,0,0.1,0,0.2,0c0,0,0.2,0,0.2-0.1c0,0,0-0.1,0-0.1l0-0.1l-0.1,0c-0.2-0.1-0.6-0.3-1.1-0.3
		c-0.1,0-0.2,0-0.3,0c0,0,0-0.1,0-0.1c0,0,0,0,0,0c0.5,0,0.9,0.2,1.2,0.3l0.2,0.1l0-0.2c-0.2-1-0.8-1-1.2-0.9
		c0.1-0.1,0.1-0.3,0.2-0.4l0.2-0.5L43.8,57c-0.4,0.1-0.7,0.3-0.9,0.7l-0.1-0.1l-0.1,0.1c-0.1,0.2-0.3,0.2-0.5,0.2c0,0,0,0,0,0
		c0.4,0,0.6-0.3,0.6-0.6c0-0.1,0-0.2-0.1-0.3l-0.2-0.2l0,0.3c0,0.2-0.2,0.4-0.5,0.3l-0.3-0.1l0,0.1c0,0,0,0,0,0c0,0,0,0,0,0h-0.2
		l0,0c-0.1,0-0.1-0.1-0.2-0.1c-0.3-0.1-0.4-0.1-0.6,0c-0.1,0-0.1,0-0.2,0.1c-0.1,0-0.2,0-0.2,0c-0.1-0.1,0.1-0.5,0.2-0.6l0.1-0.1
		c0-0.1,0-0.1,0.1-0.3c0.1-0.3,0.1-0.3,0.1-0.3c0.1,0,0.4-0.1,0.6-0.1c0.1,0,0.1,0,0.2,0.1c0,0.1,0.1,0.2,0.2,0.2l0,0
		c0.1,0,0.2,0,0.3,0c0.2,0,0.2,0,0.2,0.1l0.1,0.3l0.2-0.2c0.1-0.2,0.2-0.2,0.4-0.1c0.1,0,0.2,0,0.4,0l0.1,0l0-0.1c0-0.2,0-0.2,0-0.2
		c0,0,0,0,0,0c0.2,0,0.3-0.1,0.4-0.1c0.1-0.1,0.3-0.1,0.4-0.1c0.1,0,0.1,0,0.2,0c0.2,0,0.4,0.1,0.5,0l0.2-0.1L45,55.7
		c-0.6-0.4-0.1-1.3-0.1-1.3c0-0.1,0.1-0.1,0.2-0.2c0.1-0.1,0.2-0.2,0.2-0.3c0-0.1,0.1-0.3,0.1-0.4c0,0,0,0,0-0.1
		c0.1,0.1,0.2,0.3,0.2,0.5c0,0.1,0,0.2,0,0.3c-0.1,0.3-0.1,0.6,0.1,0.9v0.2l0.2-0.1c0.1,0,0.1-0.1,0.2-0.2c0,0,0.1-0.2,0.2-0.3
		c0,0,0,0,0,0l0,0.5l0.3-0.4c0,0,0.1-0.2,0.2-0.3l0,0c0,0,0,0.1,0,0.1c-0.3,0.4-0.5,1.1-0.2,1.5c0.1,0.3,0.4,0.4,0.8,0.4
		c0.3,0,0.4-0.1,0.6-0.2c0.2-0.2,0.2-0.5,0.1-0.8c0-0.2,0-0.3,0-0.5c0.4,0.2,0.4,0.6,0.5,1c0.1,0.3,0.1,0.7,0.3,0.9
		c-0.1,0-0.3,0-0.4-0.1l-0.4-0.2l0.2,0.4c0.3,0.5,0.7,0.8,1.1,1c-0.2,0-0.4,0-0.6-0.1l-0.3-0.1l0.1,0.3c0.2,0.4,0.5,0.7,1,0.8
		c-0.3,0.1-0.6,0-0.9-0.1l-0.5-0.3c0-0.2-0.1-0.4-0.1-0.5c-0.1-0.3-0.2-0.4-0.4-0.5c-0.1,0-0.2,0-0.3,0.1l-0.1,0.1l0.1,0.1
		c0.1,0,0.1,0.1,0.1,0.2c0,0.1,0.1,0.2,0.1,0.3l0,0.1c0.1,0.2,0.1,0.4,0,0.6c0,0.3-0.2,0.6-0.4,0.9c0-0.1,0-0.3-0.1-0.4
		c0-0.1-0.1-0.2-0.1-0.3l0,0c0-0.1-0.1-0.1-0.1-0.2l-0.1-0.3L46.5,59c-0.1,0.2-0.1,0.4-0.3,0.6c-0.1,0.1-0.2,0.2-0.3,0.3
		c-0.1,0.1-0.3,0.2-0.2,0.4l0,0.1l0.1,0c0.3-0.1,0.6-0.2,0.9-0.5c0,0.1,0,0.3-0.1,0.4l0,0c0,0,0,0.1,0,0.1l0,0.2l0.2,0
		c0.1,0,0.3-0.1,0.4-0.2c0,0,0,0,0.1-0.1c0.1-0.1,0.3-0.2,0.4-0.4c0.3-0.3,0.5-0.8,0.5-1.2c0-0.1,0-0.1,0-0.2l0.3,0.3
		c0.3,0.3,0.7,0.6,1.3,0.6c-0.2,0.2-0.4,0.3-0.6,0.3l-0.4,0l0,0.1c0,0,0,0.6,0,0.7c0,0.2,0,0.6,0.1,0.9c-0.1-0.1-0.2-0.2-0.2-0.3
		c-0.1-0.1-0.2-0.4-0.3-0.5l-0.1-0.4l-0.1,0.4c0,0,0,0.1,0,0.1c0,0.1,0,0.2,0,0.4c0,0.1,0,0.3,0.1,0.4c0.1,0.2,0.1,0.3,0.2,0.4
		c0.1,0.1,0.2,0.2,0.3,0.3c0.2,0.2,0.5,0.2,0.7,0.2c0.2,0,0.3,0,0.5-0.1c0,0,0.1,0,0.1,0c-0.1,0.2-0.3,0.4-0.5,0.5
		c-0.2,0.2-0.5,0.3-0.8,0.3c-0.2,0-0.4,0-0.6,0c-0.1,0-0.2,0-0.3,0c-0.4,0-0.7-0.2-1-0.3c-0.1-0.1-0.2-0.1-0.3-0.2l-0.1-0.1l-0.1,0
		c-0.1,0-0.1,0.1-0.1,0.2c0,0.2,0.1,0.4,0.2,0.6c0.1,0.1,0.2,0.2,0.3,0.3c0.1,0,0.2,0.1,0.4,0.1c-0.1,0.1-0.2,0.1-0.3,0.2
		c-0.2,0.1-0.3,0.1-0.5,0.1c-0.2,0-0.3,0-0.5,0c-0.4,0-0.7-0.2-1-0.4c-0.2-0.1-0.4-0.3-0.5-0.5l-0.1-0.1l-0.1,0c0,0,0,0-0.1,0
		c-0.1,0-0.1,0-0.2,0.1c0,0.1-0.1,0.1-0.2,0.2c-0.1,0.1-0.2,0.1-0.4,0.2c-0.1,0-0.3,0.1-0.4,0.1c-0.1,0-0.3,0-0.4,0
		C42.2,63.9,41.9,63.9,41.7,63.8z M41,58.5c0.2,0.1,0.4,0.1,0.8,0.1c0.3,0,0.5,0,0.8-0.1c0,0.1,0,0.1-0.1,0.2c-0.3,0-0.5,0.1-0.7,0
		C41.2,58.7,41,58.5,41,58.5C40.9,58.4,40.9,58.5,41,58.5z M44.1,58.1c0,0,0.1,0,0.1,0c0,0,0,0,0,0c0,0,0,0.1,0,0.1
		C44.2,58.1,44.1,58.1,44.1,58.1z M44.3,58.2C44.3,58.2,44.3,58.2,44.3,58.2L44.3,58.2L44.3,58.2z M41.9,57.9C42,58,42,58,42.1,58
		C42,58,42,58,41.9,57.9z M42.7,59.9C42.7,59.9,42.7,59.9,42.7,59.9C42.7,59.9,42.7,59.9,42.7,59.9l0.1-0.1
		C42.7,59.8,42.7,59.8,42.7,59.9z M47.8,54.2c0,0-0.1,0.1-0.1,0.2c-0.2,0.3-0.2,0.6-0.2,1c0,0,0,0.1,0,0.1c0,0.2,0,0.4,0,0.4
		c0,0.1-0.1,0.1-0.3,0.1c-0.2,0-0.3-0.1-0.4-0.2c-0.1-0.2,0-0.7,0.2-1c0.1-0.2,0.3-0.4,0.5-0.6l0,0c0.2-0.2,0.3-0.3,0.5-0.5
		c0,0,0,0,0,0.1C48,53.9,47.9,54,47.8,54.2z"></path>
        <path class="logo-blue-2" d="M40.8,56.4l0,0.3c0,0.1-0.1,0.2-0.1,0.2c-0.1,0.1-0.1,0.2,0,0.2c0.1,0,0.1,0.1,0.2,0.1c0,0,0,0,0,0
		c0,0,0.1,0,0.2-0.1c0.1-0.1,0.1-0.4,0-0.5L40.8,56.4z"></path>
        <path class="logo-blue-2" d="M41.4,56.9c0,0-0.1-0.1-0.1-0.2l-0.1-0.3l-0.1,0.3c0,0.1-0.1,0.3,0,0.4c0,0.1,0.1,0.1,0.2,0.1c0,0,0,0,0.1,0
		c0.1,0,0.1-0.1,0.2-0.1C41.6,57,41.5,56.9,41.4,56.9L41.4,56.9z"></path>
        <path class="logo-blue-2" d="M45.6,56.7C45.6,56.7,45.6,56.7,45.6,56.7L45.6,56.7c0.1-0.1,0.2-0.1,0.3-0.2c0,0,0-0.1,0-0.1
		c0,0-0.1-0.1-0.6-0.1l0,0.1v0l0-0.1c-0.2,0-0.4,0.1-0.6,0.1l-0.4,0.1l-0.1,0l0,0.1c0,0.1,0,0.1,0,0.1c0,0.1,0.1,0.1,0.2,0.1
		c0,0,0,0,0.1,0c0,0,0,0,0,0c0,0,0,0,0,0c0.1,0.1,0.3,0.3,0.5,0.3c0,0,0,0,0,0C45.3,57.2,45.5,57,45.6,56.7z"></path>
        <path class="logo-blue-2" d="M44.9,62.9l0.2,0.1l0-0.1c0.1,0.1,0.2,0.2,0.3,0.3c0,0,0.1,0,0.1,0c0.1,0,0.1,0,0.2-0.1l0.1-0.1L45.8,63
		c-0.3-0.3-0.6-0.6-0.6-1l0-0.2l-0.2,0c0,0-0.1,0-0.1,0c0-0.2,0-0.4,0-0.6c0-0.2,0.1-0.4,0.1-0.6l0-0.3l-0.2,0.2
		c-0.3,0.3-0.4,0.7-0.4,1.3C44.4,62.4,44.6,62.8,44.9,62.9z"></path>
</g>
</svg>
